# xmcd CD database file
#
# Track frame offsets:
#	150
#	10663
#	48365
#	74760
#	100080
#	120090
#	144713
#	176248
#	195628
#	202260
#	236312
#
# Disc length: 3780 seconds
#
# Revision: 7
# Processed by: cddbd v1.5.2PL0 Copyright (c) Steve Scherf et al.
# Submitted via: CDex 1.51
#
DISCID=990ec20b
DTITLE=Bernstein - Leonard Bernstein - Vol.03
DYEAR=1900
DGENRE=Classique
TTITLE0=Symphony N°2 (The age of anxiety) for piano and orch. - Part I. a) The Prologue [1949 - L.Foss, piano]
TTITLE1=Symphony N°2 (The age of anxiety) for piano and orch. - Part I. b) The Seven Ages (Variations I-VII)
TTITLE2=Symphony N°2 (The age of anxiety) for piano and orch. - Part I. c) The Seven Stages (Variations VIII-XIV)
TTITLE3=Symphony N°2 (The age of anxiety) for piano and orch. - Part II. a) The Dirge
TTITLE4=Symphony N°2 (The age of anxiety) for piano and orch. - Part II. b) The Masque
TTITLE5=Symphony N°2 (The age of anxiety) for piano and orch. - Part II. c) The Epilogue
TTITLE6=Serenate for soIo violin, strings, harp and percussion - I. Phaedrus - Pausanias  [1954 - I.Stern, violin]
TTITLE7=Serenate for soIo violin, strings, harp and percussion - II. Aristophanes (Allegretto)
TTITLE8=Serenate for soIo violin, strings, harp and percussion - III. Eryximachus (Presto)
TTITLE9=Serenate for soIo violin, strings, harp and percussion - IV. Agathon (Adagio)
TTITLE10=Serenate for soIo violin, strings, harp and percussion - V. Socrates - Alcibiades (Molto tenuto - Allegro)
EXTD=
EXTT0=
EXTT1=
EXTT2=
EXTT3=
EXTT4=
EXTT5=
EXTT6=
EXTT7=
EXTT8=
EXTT9=
EXTT10=
PLAYORDER=
